<?xml version="1.0" encoding="UTF-8"?><svg version="1.1" width="1211px" height="1135px" viewBox="0 0 1211.0 1135.0" xmlns="http://www.w3.org/2000/svg" xmlns:xlink="http://www.w3.org/1999/xlink"><defs><clipPath id="551171091141001164511710299"><path d="M1240,0 L1240,1240 L0,1240 L0,0 L1240,0 Z"></path></clipPath><clipPath id="104561111149712210912210852"><path d="M773.487948,1.25854597e-14 C881.807475,-7.31251454e-15 921.086753,11.2783118 960.686753,32.4566235 C1000.28675,53.6349353 1031.36506,84.713247 1052.54338,124.313247 C1073.72169,163.913247 1085,203.192525 1085,311.512052 L1085,717.487948 C1085,825.807475 1073.72169,865.086753 1052.54338,904.686753 C1031.36506,944.286753 1000.28675,975.365065 960.686753,996.543376 C921.086753,1017.72169 881.807475,1029 773.487948,1029 L311.512052,1029 C203.192525,1029 163.913247,1017.72169 124.313247,996.543376 C84.713247,975.365065 53.6349353,944.286753 32.4566235,904.686753 C11.2783118,865.086753 -1.19856863e-14,825.807475 2.0628386e-14,717.487948 L8.39030649e-15,311.512052 C-4.8750097e-15,203.192525 11.2783118,163.913247 32.4566235,124.313247 C53.6349353,84.713247 84.713247,53.6349353 124.313247,32.4566235 C163.913247,11.2783118 203.192525,-9.54818145e-15 311.512052,1.64332327e-14 L773.487948,1.25854597e-14 Z M618.274386,246 L407.725614,246 C340.362998,246 315.935685,253.013847 291.308919,266.184385 C266.682154,279.354924 247.354924,298.682154 234.184385,323.308919 C221.013847,347.935685 214,372.362998 214,439.725614 L214,637.274386 C214,704.637002 221.013847,729.064315 234.184385,753.691081 C247.354924,778.317846 266.682154,797.645076 291.308919,810.815615 C315.935685,823.986153 340.362998,831 407.725614,831 L618.274386,831 C685.637002,831 710.064315,823.986153 734.691081,810.815615 C759.317846,797.645076 778.645076,778.317846 791.815615,753.691081 C804.986153,729.064315 812,704.637002 812,637.274386 L812,439.725614 C812,372.362998 804.986153,347.935685 791.815615,323.308919 C778.645076,298.682154 759.317846,279.354924 734.691081,266.184385 C710.064315,253.013847 685.637002,246 618.274386,246 Z"></path></clipPath><clipPath id="54114561171064910895100104"><path d="M773.487948,1.25854597e-14 C881.807475,-7.31251454e-15 921.086753,11.2783118 960.686753,32.4566235 C1000.28675,53.6349353 1031.36506,84.713247 1052.54338,124.313247 C1073.72169,163.913247 1085,203.192525 1085,311.512052 L1085,717.487948 C1085,825.807475 1073.72169,865.086753 1052.54338,904.686753 C1031.36506,944.286753 1000.28675,975.365065 960.686753,996.543376 C921.086753,1017.72169 881.807475,1029 773.487948,1029 L311.512052,1029 C203.192525,1029 163.913247,1017.72169 124.313247,996.543376 C84.713247,975.365065 53.6349353,944.286753 32.4566235,904.686753 C11.2783118,865.086753 -1.19856863e-14,825.807475 2.0628386e-14,717.487948 L8.39030649e-15,311.512052 C-4.8750097e-15,203.192525 11.2783118,163.913247 32.4566235,124.313247 C53.6349353,84.713247 84.713247,53.6349353 124.313247,32.4566235 C163.913247,11.2783118 203.192525,-9.54818145e-15 311.512052,1.64332327e-14 L773.487948,1.25854597e-14 Z M679.274393,197 L391.725607,197 C324.362993,197 299.935681,204.013847 275.308917,217.184385 C250.682152,230.354923 231.354923,249.682152 218.184385,274.308917 C205.013847,298.935681 198,323.362993 198,390.725607 L198,643.274393 C198,710.637007 205.013847,735.064319 218.184385,759.691083 C231.354923,784.317848 250.682152,803.645077 275.308917,816.815615 C299.935681,829.986153 324.362993,837 391.725607,837 L679.274393,837 C746.637007,837 771.064319,829.986153 795.691083,816.815615 C820.317848,803.645077 839.645077,784.317848 852.815615,759.691083 C865.986153,735.064319 873,710.637007 873,643.274393 L873,390.725607 C873,323.362993 865.986153,298.935681 852.815615,274.308917 C839.645077,249.682152 820.317848,230.354923 795.691083,217.184385 C771.064319,204.013847 746.637007,197 679.274393,197 Z"></path></clipPath></defs><g transform="translate(-14.0 -53.0)"><g clip-path="url(#551171091141001164511710299)"><g transform="translate(14.0 159.0)"><g clip-path="url(#104561111149712210912210852)"><polygon points="8.39030649e-15,1.25854597e-14 1085,1.25854597e-14 1085,1029 8.39030649e-15,1029 8.39030649e-15,1.25854597e-14" stroke="none" fill="#2C6EFA"></polygon></g></g><g transform="translate(140.0 53.0)"><g clip-path="url(#54114561171064910895100104)"><polygon points="8.39030649e-15,1.25854597e-14 1085,1.25854597e-14 1085,1029 8.39030649e-15,1029 8.39030649e-15,1.25854597e-14" stroke="none" fill="#FFC132"></polygon></g></g></g></g></svg>